<svg xmlns="http://www.w3.org/2000/svg" width="490.593" height="470.198" id="and">
  <path d="M170.942 68.773h29.652c0-11.742-2.846-37.503 28.171-37.503 23.544 0 22.356 20.01 22.356 20.01s.95 13.42-18.976 23.244c-18.018 8.885-19.689 21.326-19.689 26.836v34.506h29.889v-22.285c0-8.387 5.93-12.938 19.215-22.523 13.285-9.585 22.063-18.69 22.063-39.299C283.623 31.151 263.221 0 225.977 0c0 0-25.618-.239-40.327 18.211-14.708 18.453-15.421 29.235-14.708 50.562zm71.167 77.877h-29.653v31.151h29.653V146.65zm192.068 193.651c43.433 0 56.416-35.585 56.416-55.986 0-25.621-21.953-52.665-51.694-52.665H369.74v-59.79L60.47 237.343v17.081l309.27 61.679v-56.935h66.563c15.578 0 26.908 16.132 26.908 26.096 0 12.596-7.555 26.846-26.911 26.846 0 0-21.713-2.174-21.713 13.482 0 15.658 16.523 14.709 19.59 14.709zM52.185 239.241v13.179H7.57c-9.914 0-10.27-13.06 0-13.179.255-.003 44.615 0 44.615 0zm288.02 159.615h16.676c3.757 0 11.507 3.524 11.507 10.568v60.774l-36.638-10.566H121.32c-10.57 0-14.773-8.792-14.773-13.489 0-4.697 3.734-13.568 14.773-13.568h105.92v-6.284H121.32c-10.57 0-14.773-8.85-14.773-13.546 0-4.694 3.734-13.307 14.773-13.307h105.92v-5.763H121.32c-10.57 0-14.773-8.588-14.773-13.285 0-4.697 3.734-14.105 14.773-14.105h105.92v-5.675H121.259c-10.567 0-14.712-9.443-14.712-14.14 0-4.696 3.675-13.777 14.712-13.777H209.8l-29.766-8.22c-7.515-2.582-11.347-9.362-9.234-17.113 2.114-7.748 8.5-11 19.332-8.952l178.256 34.519v34.651c0 8.22-5.636 13.62-11.742 13.62h-16.441c-10.568 0-10.568 17.658 0 17.658z"></path>
</svg>
