<svg xmlns="http://www.w3.org/2000/svg" enable-background="new 0 0 229.517 268.021" viewBox="0 0 229.517 268.021" id="lost">
  <path d="M81.167 91.431L66.948 84.66c-2.001-.953-3.512-2.628-4.253-4.718-.741-2.089-.624-4.342.329-6.344 1.37-2.875 4.313-4.733 7.498-4.733 1.239 0 2.438.272 3.564.808l4.343 2.068c-3.46-4.305-8.761-7.066-14.712-7.066-10.425 0-18.877 8.452-18.877 18.878 0 5.483 2.34 11.656 6.074 16.278h25.606C78.516 97.36 80.112 94.447 81.167 91.431zM71.957 219.62c2.142 13.249 3.565 26.47 4.232 39.39.262 5.073 4.457 9.011 9.479 9.011.164 0 .331-.004.497-.013 5.239-.271 9.269-4.736 8.998-9.977-.702-13.623-2.202-27.554-4.459-41.501-4.421 2.43-10.832 3.378-14.929 3.378C74.311 219.908 73.056 219.8 71.957 219.62zM45.658 219.908c-4.096 0-10.507-.948-14.927-3.378-2.257 13.948-3.757 27.878-4.459 41.501-.271 5.24 3.759 9.706 8.998 9.977.167.009.332.013.497.013 5.022 0 9.218-3.938 9.479-9.011.667-12.919 2.09-26.14 4.232-39.39C48.379 219.8 47.123 219.908 45.658 219.908L45.658 219.908z"></path>
  <path d="M85.455,164.249c0.041-1.241,0.062-2.265,0.07-2.985c0.003-0.255,0.005-0.484,0.005-0.657c0,0-0.302-31.063-2.164-47.908
		l25.016-13.593c1.983-1.078,3.193-3.176,3.134-5.432c-0.061-2.255-1.381-4.287-3.418-5.257l-35-16.667
		c-2.991-1.424-6.571-0.155-7.997,2.837c-1.425,2.992-0.154,6.572,2.837,7.997l24.364,11.603l-14.62,7.944H46.537
		c-2.772-1.275-6.046-1.891-9.621-1.027c-13.379,3.231-22.647,25.079-29.113,68.659c-0.908,0.387-1.754,0.886-2.541,1.462
		c-3.184,2.335-5.26,6.092-5.261,10.346L0,264.021c0,1.816,1.475,3.291,3.291,3.291c1.818,0,3.291-1.475,3.291-3.291V181.57
		c0.002-1.052,0.265-2.041,0.724-2.91c0.368-0.698,0.865-1.315,1.458-1.825c0.917,1.113,2.231,1.905,3.772,2.126
		c0.289,0.041,0.575,0.062,0.859,0.062c1.553,0,2.992-0.616,4.077-1.629c0.521,0.578,0.934,1.253,1.212,1.995
		c0.254,0.68,0.4,1.412,0.402,2.181c0,1.816,1.473,3.289,3.291,3.289c1.816,0,3.289-1.473,3.289-3.289
		c-0.001-3.568-1.458-6.793-3.807-9.119c-0.63-0.624-1.328-1.177-2.077-1.66c6.473-43.113,14.456-54.23,18.177-57.084
		c-1.766,17.045-2.055,46.9-2.055,46.9c0,0.176,0.002,0.41,0.005,0.672c0.003,0.304,0.009,0.658,0.018,1.063
		C57.357,166.93,79.114,164.982,85.455,164.249z"></path>
  <path d="M28.891,209.437c-1.215,6.795,23.527,10.455,24.609,4.404c1.959-10.956,4.075-19.972,5.725-26.32h2.983
		c1.65,6.349,3.765,15.364,5.725,26.32c1.082,6.051,25.824,2.391,24.609-4.404c-2.82-15.746-5.94-27.783-7.807-34.363
		c0.284-2.672,0.472-5.404,0.592-7.793c-3.466,0.385-10.412,1.007-19.113,1.007c-8.87,0-19.55-0.668-30.194-2.873
		c0.021,0.528,0.046,1.086,0.074,1.662c0.12,2.438,0.309,5.249,0.602,7.999C34.831,181.656,31.711,193.692,28.891,209.437z"></path>
  <polygon points="174.902 0 157.098 0 157.098 19.192 174.902 18.24"></polygon>
  <path d="M168.596,47.761l27.962-1.495l21.339-14.406l-22.753-12.049l-64.081,3.426l1.388,25.974l5.8-3.071L168.596,47.761z
		 M190.118,27.121l1.584-0.084l0.484,9.078l1.828-0.017l0.066,1.244l-5.652,0.302l-0.064-1.195l1.482-0.16
		c0.291-0.032,0.432-0.088,0.408-0.524l-0.361-6.751l-2.15,1.266l-0.672-1.066L190.118,27.121z M177.794,30.194
		c1.104-0.237,1.463-1.115,1.703-2.083l1.049-0.056l0.1,1.842l2.1-0.112l-0.021,1.41l-2.004,0.107l0.223,4.15
		c0.053,0.985,0.439,1.256,1.117,1.22c0.469-0.025,0.863-0.208,1.115-0.367l0.441,1.305c-0.438,0.315-1.184,0.582-1.959,0.623
		c-2.391,0.127-2.563-1.289-2.633-2.597l-0.227-4.231l-1.115,0.06L177.794,30.194z M174.173,30.031
		c1.631-0.087,2.689,0.618,2.77,2.136c0.123,2.31-1.801,2.979-4.551,3.029c0.139,1.078,0.721,1.986,2.127,1.911
		c0.938-0.05,1.611-0.475,2-0.771l0.639,1.31c-0.25,0.208-1.281,0.895-2.768,0.974c-2.729,0.146-3.844-1.576-3.965-3.87
		C170.29,32.247,171.589,30.169,174.173,30.031z M166.55,30.439c1.631-0.087,2.689,0.618,2.77,2.136
		c0.123,2.31-1.801,2.979-4.551,3.029c0.139,1.077,0.721,1.986,2.127,1.911c0.936-0.05,1.609-0.475,2-0.771l0.637,1.31
		c-0.248,0.208-1.281,0.895-2.766,0.974c-2.73,0.146-3.844-1.577-3.967-3.87C162.667,32.654,163.964,30.577,166.55,30.439z
		 M157.855,31.114l0.066,1.228l0.016-0.001c0.254-0.71,0.924-1.492,2.217-1.561c0.467-0.025,1.037,0.026,1.502,0.228l0.145,2.698
		l-1.609,0.199l-0.055-1.017c-0.014-0.275-0.035-0.371-0.168-0.413c-0.117-0.058-0.246-0.067-0.455-0.056
		c-0.873,0.047-1.385,0.803-1.334,1.74l0.203,3.812l1.297-0.004l0.064,1.211l-4.07,0.217l-0.063-1.163l0.482-0.074
		c0.354-0.051,0.395-0.183,0.375-0.554l-0.25-4.684c-0.018-0.323-0.119-0.415-0.396-0.432l-0.551-0.003l-0.064-1.228L157.855,31.114
		z M149.029,31.732c1.104-0.237,1.461-1.115,1.701-2.083l1.051-0.056l0.098,1.841l2.1-0.112l-0.021,1.411l-2.002,0.107l0.221,4.15
		c0.053,0.986,0.439,1.256,1.119,1.22c0.469-0.025,0.863-0.208,1.113-0.368l0.441,1.305c-0.436,0.314-1.182,0.581-1.957,0.623
		c-2.391,0.128-2.564-1.289-2.635-2.596l-0.225-4.231l-1.115,0.06L149.029,31.732z M144.607,29.02
		c1.018-0.055,2.223,0.076,3.051,0.42l0.135,2.536l-1.561,0.197l-0.055-1.049c-0.016-0.275-0.055-0.402-0.316-0.469
		c-0.246-0.052-0.783-0.088-1.156-0.069c-0.871,0.047-1.727,0.4-1.668,1.466c0.055,1.034,0.943,1.294,2.207,1.615
		c1.512,0.39,3.074,0.856,3.188,2.973c0.113,2.116-1.258,3.403-3.828,3.541c-1.113,0.06-2.332-0.021-3.227-0.378l-0.139-2.616
		l1.559-0.213l0.059,1.099c0.016,0.274,0.07,0.401,0.316,0.468c0.264,0.067,0.832,0.102,1.283,0.077
		c1.051-0.056,1.969-0.445,1.902-1.705c-0.057-1.05-0.963-1.358-2.127-1.603c-1.508-0.324-3.123-0.854-3.234-2.921
		C140.89,30.418,142.329,29.142,144.607,29.02z"></path>
  <path d="M175.22 32.356c-.035-.678-.453-.932-1.053-.899-1.291.069-1.791 1.311-1.848 2.367.227.004.438-.007.646-.018C174.37 33.73 175.273 33.325 175.22 32.356zM167.597 32.764c-.037-.678-.455-.932-1.053-.9-1.291.069-1.793 1.312-1.848 2.367.227.004.436-.007.646-.019C166.747 34.138 167.648 33.733 167.597 32.764zM201.509 78.705l1.414-26.456-64.081-3.426-22.753 12.049 21.339 14.406L201.509 78.705zM186.025 67.697l3.676-3.852c.898-.952 1.25-1.418 1.301-2.273.057-.985-.629-1.462-1.582-1.518-.5-.029-.859.031-1.072.083-.264.065-.303.193-.318.467l-.064 1.082-1.559-.22.141-2.406c.785-.391 1.963-.614 3.238-.539 2.18.127 3.338 1.377 3.24 3.073-.068 1.162-.688 2.049-1.617 3l-3.016 3.08 4.746.278-.082 1.405-7.104-.416L186.025 67.697zM176.779 60.384c1.125-.112 1.578-.944 1.926-1.88l1.049.062-.107 1.841 2.1.123-.18 1.399-2.002-.117-.244 4.15c-.057.985.299 1.297.977 1.337.469.027.881-.11 1.148-.241l.293 1.346c-.469.264-1.24.446-2.016.401-2.391-.14-2.404-1.566-2.326-2.875l.246-4.23-1.113-.065L176.779 60.384zM144.993 57.277c-.238-.079-.768-.175-1.139-.197-.871-.051-1.762.205-1.824 1.271-.061 1.034.793 1.392 2.014 1.851 1.459.556 2.961 1.194 2.836 3.31-.123 2.115-1.631 3.242-4.199 3.092-1.113-.065-2.316-.282-3.164-.736l.154-2.616 1.572-.038-.064 1.098c-.016.275.025.407.264.501.252.096.814.193 1.266.219 1.051.062 2.006-.223 2.08-1.482.061-1.049-.805-1.457-1.934-1.83-1.463-.491-3.01-1.197-2.889-3.264.115-1.97 1.688-3.077 3.963-2.944 1.018.059 2.201.323 2.986.758l-.148 2.535-1.572.021.063-1.049C145.273 57.504 145.247 57.373 144.993 57.277zM151.538 65.615c.467.027.881-.11 1.146-.241l.295 1.346c-.469.264-1.242.446-2.016.4-2.391-.14-2.404-1.566-2.328-2.874l.248-4.23-1.115-.065.252-1.249c1.125-.112 1.578-.945 1.924-1.88l1.051.062-.107 1.841 2.098.123-.178 1.399-2.002-.117-.244 4.15C150.505 65.263 150.859 65.575 151.538 65.615zM160.493 62.088l-1.621.019.061-1.017c.016-.275.004-.372-.123-.429-.109-.071-.236-.095-.445-.107-.873-.051-1.465.644-1.52 1.58l-.223 3.811 1.287.141-.07 1.21-4.068-.238.066-1.162.488-.02c.357-.012.412-.138.434-.509l.275-4.683c.018-.323-.072-.426-.346-.474l-.547-.064.072-1.228 2.648.155-.072 1.228.016 0c.332-.678 1.086-1.379 2.377-1.303.469.027 1.029.141 1.469.394L160.493 62.088zM165.132 66.443c.938.055 1.652-.292 2.074-.543l.486 1.374c-.27.179-1.373.746-2.857.659-2.73-.16-3.645-1.995-3.51-4.288.146-2.503 1.67-4.423 4.252-4.272 1.631.096 2.604.914 2.514 2.432-.135 2.309-2.121 2.76-4.859 2.502C163.249 65.393 163.728 66.36 165.132 66.443zM172.456 68.378c-2.729-.16-3.643-1.996-3.508-4.289.146-2.502 1.668-4.423 4.252-4.272 1.631.096 2.602.914 2.514 2.432-.135 2.309-2.121 2.76-4.861 2.502.018 1.086.496 2.054 1.9 2.136.938.055 1.654-.292 2.074-.543l.486 1.374C175.044 67.898 173.941 68.465 172.456 68.378z"></path>
  <path d="M166.361 61.799c.039-.678-.35-.976-.947-1.011-1.291-.076-1.926 1.102-2.102 2.146.225.029.436.042.645.054C165.361 63.07 166.302 62.768 166.361 61.799zM173.982 62.246c.039-.678-.348-.977-.945-1.011-1.293-.076-1.928 1.102-2.104 2.146.227.029.436.042.645.054C172.984 63.516 173.923 63.214 173.982 62.246zM229.517 209.618h-43.071c.537-1.667 1.734-4.204 4.321-5.979-3.177.179-5.458 1.864-6.966 3.539.643-3.567 2.131-8.497 5.564-10.852-4.489.253-7.569 3.817-9.523 7.297.474-4.707 1.849-10.486 5.539-14.047-5.214.413-8.481 4.957-10.479 9.628V79.936l-17.804-.952v120.744c-1.975-4.849-5.288-9.723-10.697-10.151 3.689 3.561 5.064 9.34 5.539 14.047-1.954-3.48-5.034-7.044-9.523-7.297 3.433 2.355 4.922 7.285 5.564 10.852-1.508-1.675-3.789-3.36-6.966-3.539 2.587 1.775 3.785 4.312 4.321 5.979h-44.319v3.882h128.5V209.618zM39.68 64.235c-.481 0-.857.11-1.128.329-.094.084-.219.178-.376.282-.836.575-1.254 1.103-1.254 1.583 0 .585.225 1.071.674 1.458.449.386 1.003.58 1.661.58.627 0 1.303-.233 2.029-.698.726-.465 1.089-1.021 1.089-1.669 0-.825-.476-1.269-1.426-1.332C40.437 64.413 40.014 64.235 39.68 64.235zM43.206 57.684c2.622-.909 4.351-1.559 5.187-1.951.836-.392 1.567-1.081 2.194-2.069.627-.987.94-2.259.94-3.816v-.016c-.021-1.41-.188-2.445-.501-3.103-.313-.658-1.04-1.368-2.178-2.131-.69-.48-1.62-.695-2.79-.643-.606.021-1.212.037-1.818.047-.867.021-1.693.272-2.476.752h.016c-.93.501-1.701 1.11-2.312 1.826-.611.716-.917 1.35-.917 1.904 0 .92.48 1.379 1.442 1.379 1.473 0 2.278-.465 2.413-1.395.052-.271.279-.549.682-.831.402-.282 1.167-.423 2.296-.423.386 0 .773.063 1.16.188.386.125.647.264.784.415.136.152.284.531.446 1.136.162.606.243 1.086.243 1.442 0 .501-.125 1.008-.376 1.52-.251.512-.559.846-.925 1.003l-2.116.83c-1.337.523-2.244.909-2.719 1.16-.475.251-1 .617-1.575 1.097-.637 1.295-1.032 2.155-1.183 2.578-.152.423-.227.881-.227 1.371 0 .46.083.901.251 1.324.167.423.397.635.689.635.899 0 1.536-.131 1.912-.392.376-.261.616-.663.721-1.207C42.678 59.293 42.924 58.416 43.206 57.684zM30.983 56.12l-.006-.01c-.559-.856-1.062-1.425-1.509-1.706-.447-.282-1.167-.435-2.16-.462-.608-.027-1.261.202-1.957.687-.363.248-.728.492-1.095.733-.523.349-.931.822-1.225 1.42l.01-.006c-.375.667-.612 1.339-.709 2.014-.097.675-.038 1.182.176 1.521.356.563.828.659 1.417.286.902-.571 1.215-1.167.938-1.789-.073-.186-.041-.444.096-.773.137-.329.551-.712 1.242-1.149.237-.15.498-.261.783-.334.285-.073.499-.089.641-.049.142.04.38.215.714.523s.57.571.707.789c.194.307.314.666.359 1.077.045.411-.015.735-.178.973l-.974 1.328c-.617.838-1.022 1.426-1.216 1.764-.194.338-.374.765-.54 1.282.112 1.04.203 1.719.274 2.037.071.318.202.627.392.928.178.282.4.52.667.714.266.194.489.235.668.122.55-.348.89-.675 1.019-.981.129-.306.12-.645-.026-1.018-.269-.708-.458-1.341-.569-1.898 1.254-1.572 2.061-2.641 2.421-3.205.36-.564.541-1.269.542-2.117C31.886 57.974 31.586 57.074 30.983 56.12zM30.283 69.356c-.451-.019-.779.036-.984.165-.294.186-.482.399-.564.639-.025.088-.065.194-.121.318-.289.676-.341 1.161-.155 1.455.227.358.553.569.977.632.425.063.839-.033 1.242-.288.384-.243.708-.647.973-1.213.265-.566.271-1.047.02-1.444C31.353 69.114 30.89 69.026 30.283 69.356z"></path>
</svg>
